<svg width="25" height="26" viewBox="0 0 25 26" fill="none" xmlns="http://www.w3.org/2000/svg">
<rect width="25" height="26" fill="#ABB52A"/>
<path fill-rule="evenodd" clip-rule="evenodd" d="M13.1433 13.5823C13.1433 14.1396 12.6917 14.5912 12.1345 14.5912C11.5772 14.5912 11.1256 14.1396 11.1256 13.5823C11.1256 13.0251 11.5772 12.5735 12.1345 12.5735C12.6917 12.5735 13.1433 13.0251 13.1433 13.5823Z" fill="white"/>
<path fill-rule="evenodd" clip-rule="evenodd" d="M13.7508 10.1633L12.9824 9.3949C12.5092 8.92175 11.7418 8.92175 11.2687 9.3949L10.5003 10.1633C10.0977 10.5659 10.0977 11.2182 10.5003 11.6208L11.3632 12.4837C11.5821 12.3297 11.8474 12.2372 12.1349 12.2372C12.4178 12.2372 12.6794 12.3256 12.8963 12.4753L13.7508 11.6208C14.1533 11.2182 14.1533 10.5659 13.7508 10.1633Z" fill="white"/>
<path fill-rule="evenodd" clip-rule="evenodd" d="M10.7899 13.5823C10.7899 13.2995 10.8784 13.0378 11.028 12.8209L10.1735 11.9664C9.77098 11.5642 9.11858 11.5642 8.71605 11.9664L7.94764 12.7349C7.47449 13.2083 7.47449 13.9754 7.94764 14.4486L8.71605 15.217C9.11858 15.6195 9.77098 15.6195 10.1735 15.217L11.0364 14.3541C10.8821 14.1351 10.7899 13.8698 10.7899 13.5823Z" fill="white"/>
<path fill-rule="evenodd" clip-rule="evenodd" d="M13.7694 15.5441L12.9064 14.6812C12.6875 14.8352 12.4222 14.9276 12.1347 14.9276C11.8519 14.9276 11.5902 14.8392 11.3733 14.6896L10.5188 15.5441C10.1163 15.9466 10.1163 16.599 10.5188 17.0015L11.2872 17.7699C11.7604 18.2431 12.5278 18.2431 13.0009 17.7699L13.7694 17.0015C14.1719 16.599 14.1719 15.9466 13.7694 15.5441Z" fill="white"/>
<path fill-rule="evenodd" clip-rule="evenodd" d="M16.3226 12.7158L15.5542 11.9474C15.1517 11.5449 14.4993 11.5449 14.0968 11.9474L13.2335 12.8103C13.3879 13.0292 13.4804 13.2946 13.4804 13.5821C13.4804 13.8649 13.3919 14.1265 13.2423 14.3434L14.0968 15.1979C14.4993 15.6005 15.1517 15.6005 15.5542 15.1979L16.3226 14.4295C16.7958 13.956 16.7958 13.189 16.3226 12.7158Z" fill="white"/>
</svg>
