<svg width="26" height="26" viewBox="0 0 26 26" fill="none" xmlns="http://www.w3.org/2000/svg">
<rect width="25.1502" height="25.1502" fill="#BAA11F"/>
<path fill-rule="evenodd" clip-rule="evenodd" d="M17.7852 8.31741C17.7852 8.57834 17.5735 8.7901 17.3125 8.7901C17.0516 8.7901 16.8398 8.57834 16.8398 8.31741C16.8398 8.05649 17.0516 7.84473 17.3125 7.84473C17.5735 7.84473 17.7852 8.05649 17.7852 8.31741Z" fill="white"/>
<path fill-rule="evenodd" clip-rule="evenodd" d="M18.1602 9.45194C18.1602 9.71286 17.9485 9.92462 17.6875 9.92462C17.4266 9.92462 17.2148 9.71286 17.2148 9.45194C17.2148 9.19101 17.4266 8.97925 17.6875 8.97925C17.9485 8.97925 18.1602 9.19101 18.1602 9.45194Z" fill="white"/>
<path fill-rule="evenodd" clip-rule="evenodd" d="M16.6485 7.93948C16.6485 8.20041 16.4367 8.41217 16.1758 8.41217C15.9149 8.41217 15.7031 8.20041 15.7031 7.93948C15.7031 7.67856 15.9149 7.4668 16.1758 7.4668C16.4367 7.4668 16.6485 7.67856 16.6485 7.93948Z" fill="white"/>
<path fill-rule="evenodd" clip-rule="evenodd" d="M17.0274 9.07425C17.0274 9.33517 16.8156 9.54694 16.5547 9.54694C16.2938 9.54694 16.082 9.33517 16.082 9.07425C16.082 8.81333 16.2938 8.60156 16.5547 8.60156C16.8156 8.60156 17.0274 8.81333 17.0274 9.07425Z" fill="white"/>
<path fill-rule="evenodd" clip-rule="evenodd" d="M17.4024 10.208C17.4024 10.469 17.1906 10.6807 16.9297 10.6807C16.6688 10.6807 16.457 10.469 16.457 10.208C16.457 9.94712 16.6688 9.73535 16.9297 9.73535C17.1906 9.73535 17.4024 9.94712 17.4024 10.208Z" fill="white"/>
<path fill-rule="evenodd" clip-rule="evenodd" d="M15.8907 8.69534C15.8907 8.95627 15.6789 9.16803 15.418 9.16803C15.1571 9.16803 14.9453 8.95627 14.9453 8.69534C14.9453 8.43442 15.1571 8.22266 15.418 8.22266C15.6789 8.22266 15.8907 8.43442 15.8907 8.69534Z" fill="white"/>
<path fill-rule="evenodd" clip-rule="evenodd" d="M16.2696 9.83011C16.2696 10.091 16.0578 10.3028 15.7969 10.3028C15.536 10.3028 15.3242 10.091 15.3242 9.83011C15.3242 9.56919 15.536 9.35742 15.7969 9.35742C16.0578 9.35742 16.2696 9.56919 16.2696 9.83011Z" fill="white"/>
<path fill-rule="evenodd" clip-rule="evenodd" d="M16.6485 10.9649C16.6485 11.2258 16.4367 11.4376 16.1758 11.4376C15.9149 11.4376 15.7031 11.2258 15.7031 10.9649C15.7031 10.704 15.9149 10.4922 16.1758 10.4922C16.4367 10.4922 16.6485 10.704 16.6485 10.9649Z" fill="white"/>
<path fill-rule="evenodd" clip-rule="evenodd" d="M15.1368 9.45218C15.1368 9.7131 14.925 9.92487 14.6641 9.92487C14.4032 9.92487 14.1914 9.7131 14.1914 9.45218C14.1914 9.19126 14.4032 8.97949 14.6641 8.97949C14.925 8.97949 15.1368 9.19126 15.1368 9.45218Z" fill="white"/>
<path fill-rule="evenodd" clip-rule="evenodd" d="M15.5118 10.586C15.5118 10.8469 15.3 11.0587 15.0391 11.0587C14.7782 11.0587 14.5664 10.8469 14.5664 10.586C14.5664 10.325 14.7782 10.1133 15.0391 10.1133C15.3 10.1133 15.5118 10.325 15.5118 10.586Z" fill="white"/>
<path fill-rule="evenodd" clip-rule="evenodd" d="M15.8907 11.7207C15.8907 11.9817 15.6789 12.1934 15.418 12.1934C15.1571 12.1934 14.9453 11.9817 14.9453 11.7207C14.9453 11.4598 15.1571 11.248 15.418 11.248C15.6789 11.248 15.8907 11.4598 15.8907 11.7207Z" fill="white"/>
<path fill-rule="evenodd" clip-rule="evenodd" d="M14.379 10.208C14.379 10.469 14.1672 10.6807 13.9063 10.6807C13.6454 10.6807 13.4336 10.469 13.4336 10.208C13.4336 9.94712 13.6454 9.73535 13.9063 9.73535C14.1672 9.73535 14.379 9.94712 14.379 10.208Z" fill="white"/>
<path fill-rule="evenodd" clip-rule="evenodd" d="M14.7579 11.3428C14.7579 11.6037 14.5461 11.8155 14.2852 11.8155C14.0243 11.8155 13.8125 11.6037 13.8125 11.3428C13.8125 11.0819 14.0243 10.8701 14.2852 10.8701C14.5461 10.8701 14.7579 11.0819 14.7579 11.3428Z" fill="white"/>
<path fill-rule="evenodd" clip-rule="evenodd" d="M15.1368 12.4776C15.1368 12.7385 14.925 12.9503 14.6641 12.9503C14.4032 12.9503 14.1914 12.7385 14.1914 12.4776C14.1914 12.2166 14.4032 12.0049 14.6641 12.0049C14.925 12.0049 15.1368 12.2166 15.1368 12.4776Z" fill="white"/>
<path fill-rule="evenodd" clip-rule="evenodd" d="M13.6212 10.9649C13.6212 11.2258 13.4094 11.4376 13.1485 11.4376C12.8875 11.4376 12.6758 11.2258 12.6758 10.9649C12.6758 10.704 12.8875 10.4922 13.1485 10.4922C13.4094 10.4922 13.6212 10.704 13.6212 10.9649Z" fill="white"/>
<path fill-rule="evenodd" clip-rule="evenodd" d="M14.0001 12.0987C14.0001 12.3596 13.7883 12.5714 13.5274 12.5714C13.2665 12.5714 13.0547 12.3596 13.0547 12.0987C13.0547 11.8377 13.2665 11.626 13.5274 11.626C13.7883 11.626 14.0001 11.8377 14.0001 12.0987Z" fill="white"/>
<path fill-rule="evenodd" clip-rule="evenodd" d="M13.2462 12.8555C13.2462 13.1164 13.0344 13.3282 12.7735 13.3282C12.5125 13.3282 12.3008 13.1164 12.3008 12.8555C12.3008 12.5946 12.5125 12.3828 12.7735 12.3828C13.0344 12.3828 13.2462 12.5946 13.2462 12.8555Z" fill="white"/>
<path fill-rule="evenodd" clip-rule="evenodd" d="M12.4883 13.6114C12.4883 13.8723 12.2766 14.084 12.0157 14.084C11.7547 14.084 11.543 13.8723 11.543 13.6114C11.543 13.3504 11.7547 13.1387 12.0157 13.1387C12.2766 13.1387 12.4883 13.3504 12.4883 13.6114Z" fill="white"/>
<path fill-rule="evenodd" clip-rule="evenodd" d="M11.7308 14.3682C11.7308 14.6291 11.519 14.8409 11.2581 14.8409C10.9972 14.8409 10.7854 14.6291 10.7854 14.3682C10.7854 14.1073 10.9972 13.8955 11.2581 13.8955C11.519 13.8955 11.7308 14.1073 11.7308 14.3682Z" fill="white"/>
<path fill-rule="evenodd" clip-rule="evenodd" d="M11.353 13.2335C11.353 13.1643 11.3367 13.1 11.3098 13.041C11.1877 13.2592 11.0701 13.4759 10.957 13.6907C11.1801 13.6529 11.353 13.4672 11.353 13.2335Z" fill="white"/>
<path fill-rule="evenodd" clip-rule="evenodd" d="M11.4023 12.8786C11.4727 12.9198 11.5498 12.95 11.6372 12.95C11.8985 12.95 12.1099 12.7383 12.1099 12.4774C12.1099 12.2993 12.0078 12.1503 11.8622 12.0693C11.7911 12.1949 11.7196 12.3204 11.6474 12.4471C11.5657 12.59 11.4836 12.7345 11.4023 12.8786Z" fill="white"/>
<path fill-rule="evenodd" clip-rule="evenodd" d="M12.3934 12.1934C12.6543 12.1934 12.8661 11.9817 12.8661 11.7207C12.8661 11.4598 12.6543 11.248 12.3934 11.248C12.3624 11.248 12.3356 11.2598 12.3064 11.2654C12.1953 11.4749 12.078 11.6867 11.957 11.9015C12.0281 12.0728 12.1964 12.1934 12.3934 12.1934Z" fill="white"/>
<path fill-rule="evenodd" clip-rule="evenodd" d="M13.8313 13.691C14.0041 13.5942 14.1746 13.5004 14.3433 13.4096C14.3656 13.3552 14.3788 13.2962 14.3788 13.2334C14.3788 12.9725 14.1675 12.7607 13.9062 12.7607C13.6452 12.7607 13.4335 12.9725 13.4335 13.2334C13.4335 13.4679 13.6074 13.6539 13.8313 13.691Z" fill="white"/>
<path fill-rule="evenodd" clip-rule="evenodd" d="M12.6758 13.9903C12.6758 14.103 12.7208 14.202 12.7862 14.2833C12.9344 14.1998 13.0827 14.1154 13.2298 14.0315C13.3504 13.9627 13.4691 13.8953 13.5883 13.8277C13.5217 13.6473 13.3519 13.5176 13.1485 13.5176C12.8875 13.5176 12.6758 13.7293 12.6758 13.9903Z" fill="white"/>
<path fill-rule="evenodd" clip-rule="evenodd" d="M11.9219 14.7461C11.9219 14.7488 11.9234 14.7514 11.9234 14.7541C12.1639 14.6285 12.407 14.4977 12.6521 14.36C12.5768 14.3097 12.4917 14.2734 12.3946 14.2734C12.1336 14.2734 11.9219 14.4852 11.9219 14.7461Z" fill="white"/>
<path fill-rule="evenodd" clip-rule="evenodd" d="M10.5006 14.6514C10.4983 14.6514 10.4964 14.6525 10.4942 14.6525C10.3838 14.9195 10.2881 15.1929 10.2109 15.4644C10.4431 15.3986 10.6931 15.3131 10.9566 15.2072C10.9616 15.1793 10.9733 15.1535 10.9733 15.1241C10.9733 14.8631 10.7615 14.6514 10.5006 14.6514Z" fill="white"/>
<path fill-rule="evenodd" clip-rule="evenodd" d="M12.8377 16.2765C11.5202 17.594 9.79774 17.7823 8.838 16.8225C8.613 16.5975 8.44056 16.3396 8.32031 16.064C8.32031 16.064 9.48804 16.2292 11.1799 15.5281C13.2204 14.6818 15.7997 12.6054 17.2798 12.9041C15.363 13.9297 13.7978 15.3167 12.8377 16.2765Z" fill="white"/>
<path fill-rule="evenodd" clip-rule="evenodd" d="M8.25948 15.4849L8.39561 15.5023C8.40317 15.5034 8.96586 15.5669 9.85035 15.362C9.92636 15.0943 10.0243 14.8065 10.151 14.5006C10.9969 12.4601 13.0733 9.88071 12.7746 8.40063C11.7494 10.3175 10.3624 11.883 9.40224 12.8428C8.58431 13.6607 8.20238 14.6344 8.25948 15.4849Z" fill="white"/>
</svg>
