<svg width="26" height="26" viewBox="0 0 26 26" fill="none" xmlns="http://www.w3.org/2000/svg">
<rect width="25.1502" height="25.1502" fill="#737373"/>
<mask id="mask0_292_3272" style="mask-type:luminance" maskUnits="userSpaceOnUse" x="7" y="7" width="9" height="9">
<path fill-rule="evenodd" clip-rule="evenodd" d="M7 7H15.1947V15.6264H7V7Z" fill="white"/>
</mask>
<g mask="url(#mask0_292_3272)">
<path fill-rule="evenodd" clip-rule="evenodd" d="M11.7423 10.8971C12.0776 10.6098 12.74 10.3097 13.043 10.8784C13.3998 11.5494 11.9065 12.916 11.4356 12.7805C10.7584 12.7378 11.3842 11.2038 11.7423 10.8971ZM14.2599 8.4131C14.7303 8.35715 14.5964 9.35315 14.3888 9.6093C14.1944 9.84886 13.6945 10.2725 13.4152 9.91974C13.0861 9.50402 13.9192 8.37953 14.2599 8.4131ZM7.15081 15.6266C7.29256 15.5296 7.44012 15.4388 7.59886 15.3592L7.60052 15.3626C7.72196 15.3012 7.85335 15.2635 7.95905 15.2328C8.03324 15.2117 8.12235 15.1864 8.21934 15.1595C8.0809 14.6637 8.8908 13.8646 10.0277 13.6412C10.5243 13.6466 10.3858 14.2236 10.1529 14.609C10.3137 14.5593 10.4385 14.5183 10.4907 14.4946C10.8036 14.3504 10.9951 14.1776 11.2376 13.9583C11.4975 13.7237 11.7913 13.4584 12.2626 13.2015C12.5051 13.0535 12.7256 12.9486 12.9353 12.8608C13.1541 12.6921 13.5744 12.014 13.8932 11.43C14.8005 10.5011 15.0425 10.0042 15.1623 9.19799C15.3372 8.02294 14.7478 7 14.7478 7C14.7478 7 13.5409 7.86336 12.9689 8.59492C12.2713 9.48895 11.6657 9.65433 11.0167 10.567C10.4128 11.3243 10.4298 11.8606 9.85529 12.4939C9.56557 12.8135 7.38333 14.488 7.54498 14.4055C7.32738 14.6621 7.1392 14.9593 7.00201 15.3244C6.98833 15.3605 7.04512 15.4836 7.15081 15.6266Z" fill="white"/>
</g>
<mask id="mask1_292_3272" style="mask-type:luminance" maskUnits="userSpaceOnUse" x="7" y="11" width="12" height="8">
<path fill-rule="evenodd" clip-rule="evenodd" d="M7 11.0271H18.375V18.1152H7V11.0271Z" fill="white"/>
</mask>
<g mask="url(#mask1_292_3272)">
<path fill-rule="evenodd" clip-rule="evenodd" d="M9.91142 17.2806C9.54295 17.4095 8.37991 17.5417 8.21827 17.0476C8.02678 16.4645 9.19934 15.9149 10.4623 16.181C11.0421 16.435 10.3085 17.1425 9.91142 17.2806ZM16.4333 14.1756C16.0698 14.3688 15.2346 14.6283 15.0754 14.0492C14.8881 13.3666 16.4984 12.4203 16.8992 12.6396C17.5064 12.8161 16.8221 13.9696 16.4333 14.1756ZM12.0941 15.9405C11.4873 15.6363 12.6632 14.4691 13.1129 14.3269C13.5336 14.1935 14.2606 14.1765 14.3169 14.8185C14.3832 15.5753 12.4746 16.2489 12.0941 15.9405ZM15.1422 12.6873C14.1504 13.2369 13.5287 13.1527 12.5741 13.7392C11.7219 14.1997 11.528 14.7 10.7512 15.0581C10.36 15.2388 7.69692 15.9268 7.87763 15.9144C7.57714 16.0649 7.28741 16.2651 7.01842 16.5473C6.93801 16.6319 7.10007 17.6643 7.92198 17.9238C9.51732 18.4274 10.7421 17.8177 11.242 17.4426C11.7961 17.0265 13.1117 16.7235 13.3533 16.6265C13.4582 16.5817 14.3904 16.4192 14.9955 15.9409C15.8875 15.5231 16.8673 14.9511 17.293 14.2565C17.9134 13.2435 18.4315 11.603 18.3702 11.0447C18.3495 10.8532 15.9546 12.2375 15.1422 12.6873Z" fill="white"/>
</g>
</svg>
