<?xml version="1.0" encoding="utf-8"?>
<!-- Generator: Adobe Illustrator 27.5.0, SVG Export Plug-In . SVG Version: 6.00 Build 0)  -->
<svg version="1.1" id="Layer_1" xmlns="http://www.w3.org/2000/svg" xmlns:xlink="http://www.w3.org/1999/xlink" x="0px" y="0px"
	 viewBox="0 0 25 25" style="enable-background:new 0 0 25 25;" xml:space="preserve">
<style type="text/css">
	.st0{fill:#ED1C24;}
</style>
<g>
	<path class="st0" d="M12.6,24.7c-0.6,0-1-0.2-1.4-0.5c-3-3-6-6-9.1-8.9C1.7,14.9,1.3,14.4,1,14c-0.9-1-0.9-2.1,0-3.1
		c3.2-3.3,6.5-6.5,9.8-9.7c0.3-0.3,0.7-0.6,1.1-0.8c0.8-0.3,1.5-0.1,2.1,0.5c0.9,0.8,1.7,1.7,2.5,2.5c2.5,2.5,4.9,4.9,7.4,7.4
		c0.1,0.1,0.3,0.3,0.4,0.5c0.6,0.7,0.6,1.9,0,2.5c-0.5,0.5-1,1.1-1.5,1.6c-2.8,2.8-5.6,5.6-8.4,8.4c-0.4,0.4-0.9,0.9-1.6,1
		C12.7,24.7,12.6,24.7,12.6,24.7z M1.7,12.5c0.2,0.2,0.3,0.4,0.4,0.5c2.3,2.3,4.6,4.6,6.9,7c1,1,2,2,3,3c0.4,0.4,0.6,0.4,1,0
		c0.1-0.1,0.1-0.1,0.2-0.2c2.5-2.5,5-5,7.5-7.5c0.8-0.8,1.5-1.5,2.3-2.3c0.3-0.3,0.3-0.6,0-1c-0.1-0.1-0.2-0.2-0.3-0.3
		c-1.2-1.2-2.4-2.4-3.6-3.6c-2-2-3.9-3.9-5.9-5.8c-0.6-0.6-0.7-0.7-1.3-0.1c-1.3,1.2-2.5,2.4-3.7,3.7c-2,2-4.1,4.1-6.1,6.1
		C1.9,12.1,1.8,12.3,1.7,12.5z"/>
	<path d="M11.3,6.6c0.8,0,1.6,0,2.4,0c0,0.1,0,0.1,0,0.2c0,1.6,0,3.3-0.3,4.9c-0.1,0.8-0.2,1.6-0.3,2.4c0,0.3-0.1,0.4-0.5,0.4
		c-0.8,0-0.8,0-0.9-0.8c-0.2-1.3-0.4-2.6-0.5-4C11.3,8.7,11.3,7.7,11.3,6.6z"/>
	<path d="M13.7,15.2c0,0.8,0,1.5,0,2.3c-0.8,0-1.5,0-2.3,0c0-0.8,0-1.5,0-2.3C12.2,15.2,12.9,15.2,13.7,15.2z"/>
</g>
</svg>
