<svg width="39" height="68" viewBox="0 0 39 68" fill="none" xmlns="http://www.w3.org/2000/svg">
<path d="M38 18.5455C38 28.7878 29.4934 37.0909 19 37.0909C8.50659 37.0909 0 28.7878 0 18.5455C0 8.30308 8.50659 0 19 0C29.4934 0 38 8.30308 38 18.5455Z" fill="#367E7F"/>
<path d="M19 68L1.08114 24.7273L19 21.6364L36.9189 24.7273L19 68Z" fill="#367E7F"/>
<path fill-rule="evenodd" clip-rule="evenodd" d="M15.2477 24.0042L13.522 25.2983L15.2477 26.5933C16.1777 27.2902 17.4562 27.2902 18.3862 26.5933L20.112 25.2983L18.3862 24.0042C17.4562 23.3065 16.1777 23.3065 15.2477 24.0042Z" fill="white"/>
<path fill-rule="evenodd" clip-rule="evenodd" d="M11.41 22.749L12.7041 24.4747L13.999 22.749C14.6959 21.819 14.6959 20.5405 13.999 19.6105L12.7041 17.8848L11.41 19.6105C10.7123 20.5405 10.7123 21.819 11.41 22.749Z" fill="white"/>
<path fill-rule="evenodd" clip-rule="evenodd" d="M18.5446 20.7093L16.8188 22.0034L18.5446 23.2984C19.4746 23.9952 20.7531 23.9952 21.6823 23.2984L23.4088 22.0034L21.6823 20.7093C20.7531 20.0116 19.4746 20.0116 18.5446 20.7093Z" fill="white"/>
<path fill-rule="evenodd" clip-rule="evenodd" d="M14.7005 19.4543L15.9946 21.1801L17.2896 19.4543C17.9865 18.5243 17.9865 17.2458 17.2896 16.3158L15.9946 14.5901L14.7005 16.3158C14.0028 17.2458 14.0028 18.5243 14.7005 19.4543Z" fill="white"/>
<path fill-rule="evenodd" clip-rule="evenodd" d="M21.8428 17.4144L20.1162 18.7085L21.8428 20.0034C22.772 20.7003 24.0513 20.7003 24.9804 20.0034L26.7062 18.7085L24.9804 17.4144C24.0513 16.7167 22.772 16.7167 21.8428 17.4144Z" fill="white"/>
<path fill-rule="evenodd" clip-rule="evenodd" d="M17.9979 16.1591L19.292 17.8849L20.5869 16.1591C21.2838 15.2291 21.2838 13.9507 20.5869 13.0207L19.292 11.2949L17.9979 13.0207C17.3002 13.9507 17.3002 15.2291 17.9979 16.1591Z" fill="white"/>
<path fill-rule="evenodd" clip-rule="evenodd" d="M25.1333 14.1192L23.4067 15.4133L25.1333 16.7083C26.0625 17.4052 27.3418 17.4052 28.271 16.7083L29.9967 15.4133L28.271 14.1192C27.3418 13.4215 26.0625 13.4215 25.1333 14.1192Z" fill="white"/>
<mask id="mask0_10916_132172" style="mask-type:luminance" maskUnits="userSpaceOnUse" x="25" y="8" width="5" height="5">
<path fill-rule="evenodd" clip-rule="evenodd" d="M25.3374 8H29.9973V12.6599H25.3374V8Z" fill="white"/>
</mask>
<g mask="url(#mask0_10916_132172)">
<path fill-rule="evenodd" clip-rule="evenodd" d="M25.643 10.524L25.3374 12.6599L27.4734 12.3552C28.6242 12.1904 29.5278 11.2868 29.6926 10.136L29.9973 8L27.8614 8.30561C26.7114 8.46954 25.8069 9.37401 25.643 10.524Z" fill="white"/>
</g>
<mask id="mask1_10916_132172" style="mask-type:luminance" maskUnits="userSpaceOnUse" x="20" y="8" width="5" height="7">
<path fill-rule="evenodd" clip-rule="evenodd" d="M20.7715 8H24.4065V14.5897H20.7715V8Z" fill="white"/>
</mask>
<g mask="url(#mask1_10916_132172)">
<path fill-rule="evenodd" clip-rule="evenodd" d="M21.2948 12.8637L22.5889 14.5895L23.8838 12.8637C24.5807 11.9337 24.5807 10.6553 23.8838 9.72526L22.5889 7.99951L21.2948 9.72526C20.5971 10.6553 20.5971 11.9337 21.2948 12.8637Z" fill="white"/>
</g>
<path fill-rule="evenodd" clip-rule="evenodd" d="M8.17052 29.8294C7.94316 29.6021 7.94316 29.233 8.17052 29.0057L11.8774 25.2988L12.7011 26.1226L8.99426 29.8294C8.76691 30.0568 8.39787 30.0568 8.17052 29.8294Z" fill="white"/>
</svg>
