<?xml version="1.0" encoding="UTF-8"?>
<svg id="Layer_1" data-name="Layer 1" xmlns="http://www.w3.org/2000/svg" viewBox="0 0 194.39 67.44">
  <defs>
    <style>
      .cls-1 {
        isolation: isolate;
      }

      .cls-2 {
        fill: #fff;
      }
    </style>
  </defs>
  <path class="cls-2" d="M31.07,17.42c-.29-.04-5.37,2.85-5.37,2.85,0,0,8.17,1.7,20.05,5.27,0,0,2.37-3.35,4.01-5.19,0,0-6.87-1.28-18.7-2.92"/>
  <path class="cls-2" d="M21.66,17.08c4.02-.69,8.19.12,8.19.12,0,0-6.6,3.15-12.78,7.03,0,0-5.19-1.56-8.98-1.94,0,0,9.64-4.52,13.57-5.2"/>
  <path class="cls-2" d="M35.86,23.87s3.84,1.03,9.16,2.83c0,0-3.37,4.99-4.57,7.34,0,0-3.37-1.95-9.74-4.75,0,0,1.36-1.45,5.16-5.42"/>
  <path class="cls-2" d="M18.53,24.72s2.55-1.8,6.11-3.8c0,0,4.09.82,10.08,2.6l-5.35,5.16s-3.14-1.32-5.8-2.27c-2.65-.96-5.03-1.69-5.03-1.69"/>
  <path class="cls-2" d="M18.65,16.83l-.17.11-4.15.09-.11-.13.76-3.86.5-2.63,1.08-5.25-3.76,7.78-1.81,3.91-.18.11-3.42.06-.15-.13-.13-2.85-.41-8.88-.59,2.31-.88,3.54-1.4,5.84-.15.11c-1.62,0-2.08.02-3.57.09l-.11-.13,1.32-4.75,1.49-5.51,1.25-4.79.13-.13c2.7,0,3.33,0,5.92-.06l.13.13.11,3.42.09,1.58.22,4.21,2.72-5.83c.35-.71,1.41-3.01,1.56-3.3l.15-.13c2.53,0,3.15,0,5.87-.06l.11.13-.82,4.84-.95,5.83-.65,4.39h0v-.06Z"/>
  <path class="cls-2" d="M28.02,9.23c0-.85-.35-1.39-1.01-1.39-.84,0-1.27.9-1.38,1.1-.54,1.04-.93,3.2-.93,4.09,0,.37,0,1.49,1.02,1.49,1.12,0,1.73-1.51,2.07-3.31.22-1.03.24-1.88.24-1.99M31.12,14.56c-.56.87-1.13,1.32-1.84,1.71l-.13.05-.15.02c-1.77-.26-2.56-.27-3.36-.28-.79-.02-2.03-.03-3.35.21h-.12l-.09-.06c-1.12-.79-1.71-1.99-1.71-3.8s.62-3.82,1.79-5.23c1.53-1.79,3.57-2.05,4.99-2.05s2.57.34,3.07.62c2.14,1.12,2.14,3.59,2.14,4.1,0,.78-.06,1.53-.24,2.27-.24.95-.62,1.86-.99,2.42"/>
  <path class="cls-2" d="M31.91,15.93l.78-2.72.19-.06c.35.39,1.25,1.45,2.96,1.45.67,0,1.51-.22,1.51-.89,0-.58-.51-.84-1.34-1.25l-.45-.24c-1-.54-2.16-1.19-2.16-2.98,0-.97.38-1.9,1.06-2.64.78-.84,2.12-1.45,4.17-1.45,1.75,0,2.68.39,3.85.88l.11.2c-.37,1.17-.45,1.51-.76,2.72l-.21.04c-.18-.21-.35-.43-.56-.62-.5-.41-1.3-.69-1.98-.69-1.06,0-1.32.5-1.32.78,0,.47.56.76,1.1,1.02l.43.21c1.23.65,2.55,1.39,2.55,3.37,0,1.27-.6,2.09-.97,2.51-1.45,1.62-3.61,1.66-4.54,1.66-2.46,0-3.65-.67-4.36-1.08l-.05-.22h0Z"/>
  <path class="cls-2" d="M50.9,8.19c-.67-.02-1.56-.04-2.33.61-.61.52-1.47,1.83-1.47,3.75,0,1.11.5,1.75,1.36,1.75.47,0,.8-.21,1.12-.45l1.32-5.66ZM54.79,9.62c-.37,1.51-.74,3.04-1.02,4.56-.17.86-.32,1.75-.45,2.64l-.13.13-4,.09-.11-.13.17-.99c-.86.86-2.03,1.3-3.24,1.3-1.01,0-1.68-.38-2.03-.65-1.43-1.08-1.47-2.94-1.47-3.6,0-2.64,1.28-4.56,2.23-5.49,2.09-2.06,4.8-2.08,6.81-2.1h4.1l.13.17-1,4.08h0Z"/>
  <path class="cls-2" d="M62.16,3.57l-.17.15-4.25.62-.15-.15.74-3.45.17-.15,4.34-.59.13.15-.8,3.41h0ZM60.17,12.75c-.45,2.12-.52,2.57-.76,4.09l-.13.11-4.6.09-.09-.15c.74-2.74.86-3.22,1.45-5.81l.21-.91c.45-2.07.52-2.48.73-4.21l.15-.18c2.18-.28,2.7-.36,4.64-.74l.13.15-1.49,6.31-.26,1.25h.02Z"/>
  <path class="cls-2" d="M70.43,13.51c-.43,1.56-.47,1.84-.76,3.09l-.18.15c-.8.26-1.56.47-2.66.47-3.63,0-5.4-2.16-5.4-5.31s2.25-6.76,6.85-6.76c2.01,0,2.89.56,3.43.88l.05.18-.85,2.91-.22.02c-.52-.65-1.1-1.01-1.92-1.01-1.47,0-2.86,1.36-2.86,3.65,0,1.21.59,2.39,2.2,2.39,1.04,0,1.65-.43,2.07-.75l.22.09h.03Z"/>
  <g class="cls-1">
    <g class="cls-1">
      <path class="cls-2" d="M60.03,24.87c0,1.15-.8,1.83-2.53,1.83h-2.37v-6.23h2.4c1.49,0,2.19.58,2.19,1.52,0,.66-.34,1.14-.92,1.39.81.24,1.23.76,1.23,1.48h0ZM56.62,21.46v1.6h.49c.7,0,1.15-.26,1.15-.89,0-.52-.41-.71-1.05-.71h-.59ZM58.44,24.84c0-.59-.47-.85-1.34-.85h-.48v1.72h.65c.7,0,1.17-.24,1.17-.87Z"/>
    </g>
    <g class="cls-1">
      <path class="cls-2" d="M61.12,20.48h1.49v6.23h-1.49v-6.23Z"/>
    </g>
    <g class="cls-1">
      <path class="cls-2" d="M63.75,23.65c0-2.01,1.13-3.32,3.04-3.32,2.14,0,2.98,1.44,2.98,3.12,0,2.1-1.11,3.39-3.04,3.39-1.8,0-2.98-1.06-2.98-3.18h0ZM68.2,23.54c0-1.34-.5-2.1-1.41-2.1s-1.47.71-1.47,2.14.47,2.15,1.42,2.15c.87,0,1.46-.67,1.46-2.19Z"/>
    </g>
    <g class="cls-1">
      <path class="cls-2" d="M70.57,26.5l.19-1.31c.57.35,1.31.56,1.86.56.62,0,.97-.28.97-.7,0-.36-.25-.5-1.2-.92-1.13-.48-1.74-.88-1.74-1.89,0-1.11.79-1.92,2.39-1.92.79,0,1.33.1,1.8.31l-.16,1.26c-.49-.3-1.16-.48-1.64-.48-.54,0-.92.22-.92.64,0,.35.32.51,1.15.89,1.32.59,1.81,1.02,1.81,1.96,0,1.1-.78,1.93-2.54,1.93-.77,0-1.52-.14-1.97-.34h0Z"/>
    </g>
    <g class="cls-1">
      <path class="cls-2" d="M75.89,23.65c0-1.8.99-3.32,3.3-3.32.75,0,1.34.14,1.81.35l-.21,1.34c-.62-.35-1.09-.56-1.65-.56-.92,0-1.68.63-1.68,2.19,0,1.37.63,2.06,1.75,2.06.57,0,1.18-.21,1.64-.55l.23,1.2c-.44.3-1.23.48-2.02.48-1.94,0-3.17-.98-3.17-3.18h0Z"/>
    </g>
    <g class="cls-1">
      <path class="cls-2" d="M82.15,20.48h1.49v6.23h-1.49v-6.23Z"/>
    </g>
    <g class="cls-1">
      <path class="cls-2" d="M89.56,25.59l-.07,1.11h-4.4v-6.23h4.37l.07,1.11h-2.94v1.42h1.87v1.06h-1.87v1.52h2.97Z"/>
    </g>
    <g class="cls-1">
      <path class="cls-2" d="M96.06,20.48v6.23h-1.54l-2.49-3.99v3.99h-1.42v-6.23h1.63l2.41,3.85v-3.85s1.41,0,1.41,0Z"/>
    </g>
    <g class="cls-1">
      <path class="cls-2" d="M97.22,23.65c0-1.8.99-3.32,3.3-3.32.75,0,1.34.14,1.81.35l-.21,1.34c-.62-.35-1.09-.56-1.65-.56-.92,0-1.68.63-1.68,2.19,0,1.37.63,2.06,1.75,2.06.57,0,1.18-.21,1.64-.55l.23,1.2c-.44.3-1.23.48-2.02.48-1.94,0-3.17-.98-3.17-3.18h0Z"/>
    </g>
    <g class="cls-1">
      <path class="cls-2" d="M107.95,25.59l-.07,1.11h-4.4v-6.23h4.37l.07,1.11h-2.94v1.42h1.87v1.06h-1.87v1.52h2.97Z"/>
    </g>
    <g class="cls-1">
      <path class="cls-2" d="M108.72,26.5l.19-1.31c.57.35,1.31.56,1.86.56.62,0,.97-.28.97-.7,0-.36-.25-.5-1.2-.92-1.13-.48-1.74-.88-1.74-1.89,0-1.11.79-1.92,2.39-1.92.79,0,1.33.1,1.8.31l-.16,1.26c-.49-.3-1.16-.48-1.64-.48-.54,0-.92.22-.92.64,0,.35.32.51,1.15.89,1.32.59,1.81,1.02,1.81,1.96,0,1.1-.78,1.93-2.54,1.93-.77,0-1.52-.14-1.97-.34h0Z"/>
    </g>
  </g>
  <g class="cls-1">
    <g class="cls-1">
      <path class="cls-2" d="M115.22,20.07h-.39v.84h-.35v-.84h-.4l.02-.26h1.1v.26h.02ZM116.87,20.91h-.33v-.77l-.27.77h-.27l-.25-.77v.77h-.32v-1.1h.51l.22.7.22-.7h.49v1.1h0Z"/>
    </g>
  </g>
  <path class="cls-2" d="M13.56,43.19h-6.5v-4.26h17.82v4.26h-6.5v18.17h-4.81v-18.17h0Z"/>
  <path class="cls-2" d="M24.87,44.69h4.68v4.04h.13c.58-2.44,2.15-4.23,4.81-4.23.38,0,.8.03,1.28.16v3.94c-.51-.06-.9-.1-1.31-.1-2.5,0-4.9,1.44-4.9,5.48v7.37h-4.68v-16.66h0Z"/>
  <path class="cls-2" d="M45.6,57.8c1.95,0,3.49-1.12,3.49-3.65v-9.45h4.68v16.66h-4.68v-3.49h-.19c-.29,1.57-1.89,3.81-5.32,3.81-3.24,0-5.74-2.08-5.74-6.41v-10.57h4.68v9.45c0,2.53,1.12,3.65,3.08,3.65Z"/>
  <path class="cls-2" d="M57.17,38.93h8.08c5.16,0,7.82,2.6,7.82,6.86,0,3.4-1.79,5.77-5.22,6.5l5.38,9.07h-2.4l-5.19-8.78h-6.09v8.78h-2.37v-22.43h0ZM65.15,50.47c3.65,0,5.51-1.67,5.51-4.68s-1.86-4.77-5.51-4.77h-5.61v9.45h5.61Z"/>
  <path class="cls-2" d="M74.31,53.09c0-6.06,3.46-8.72,7.72-8.72s7.37,2.72,7.37,8.2c0,.54-.03.87-.1,1.19h-12.79c.19,4.07,2.18,6.09,5.7,6.09,2.02,0,4.01-.67,4.87-3.08h2.08c-1.12,3.68-3.94,4.9-6.99,4.9-4.65,0-7.88-2.79-7.88-8.59h.02ZM87.22,51.97c-.06-3.75-2.05-5.77-5.22-5.77s-5.22,1.86-5.45,5.77h10.67Z"/>
  <path class="cls-2" d="M91.23,56.74h2.08c.32,2.37,2.53,3.11,4.77,3.11,2.37,0,4.29-.87,4.29-3.08,0-1.73-1.19-2.31-3.08-2.76l-3.14-.74c-2.92-.7-4.39-2.11-4.39-4.42,0-2.92,2.44-4.49,6.18-4.49s6.15,1.54,6.34,4.84h-1.92c-.35-2.27-1.99-3.01-4.39-3.01-2.56,0-4,.83-4,2.66,0,1.38.8,2.18,2.92,2.69l3.14.7c2.76.67,4.68,1.7,4.68,4.49,0,3.69-3.3,4.93-6.67,4.93-3.72,0-6.63-1.51-6.83-4.93h.02Z"/>
  <path class="cls-2" d="M107.35,44.69h2.28v2.85c1.22-2.12,3.56-3.17,6.02-3.17,3.91,0,7.53,2.66,7.53,8.65s-3.62,8.65-7.53,8.65c-2.47,0-4.81-1.06-6.02-3.17v8.94h-2.28v-22.75ZM115.3,59.75c2.95,0,5.74-2.15,5.74-6.73s-2.79-6.73-5.74-6.73-5.77,2.15-5.77,6.73,2.85,6.73,5.77,6.73Z"/>
  <path class="cls-2" d="M125.36,53.03c0-5.9,3.85-8.65,7.98-8.65s7.95,2.76,7.95,8.65-3.85,8.65-7.95,8.65-7.98-2.76-7.98-8.65ZM133.34,59.76c2.98,0,5.77-2.08,5.77-6.73s-2.79-6.73-5.77-6.73-5.77,2.08-5.77,6.73,2.76,6.73,5.77,6.73Z"/>
  <path class="cls-2" d="M151.48,46.33c-3.14,0-5.09,1.95-5.09,5.22v9.81h-2.28v-16.66h2.28v3.14c.35-1.12,2.05-3.46,5.83-3.46,3.27,0,6.02,1.76,6.02,6.73v10.25h-2.27v-9.81c0-3.27-1.35-5.22-4.49-5.22Z"/>
  <path class="cls-2" d="M160.87,56.74h2.08c.32,2.37,2.53,3.11,4.77,3.11,2.37,0,4.29-.87,4.29-3.08,0-1.73-1.19-2.31-3.08-2.76l-3.14-.74c-2.92-.7-4.39-2.11-4.39-4.42,0-2.92,2.44-4.49,6.18-4.49s6.15,1.54,6.34,4.84h-1.92c-.35-2.27-1.99-3.01-4.39-3.01-2.56,0-4.01.83-4.01,2.66,0,1.38.8,2.18,2.92,2.69l3.14.7c2.76.67,4.68,1.7,4.68,4.49,0,3.69-3.3,4.93-6.67,4.93-3.72,0-6.63-1.51-6.83-4.93h.03Z"/>
  <path class="cls-2" d="M176.19,53.09c0-6.06,3.46-8.72,7.72-8.72s7.37,2.72,7.37,8.2c0,.54-.03.87-.1,1.19h-12.79c.19,4.07,2.18,6.09,5.7,6.09,2.02,0,4-.67,4.87-3.08h2.08c-1.12,3.68-3.94,4.9-6.99,4.9-4.65,0-7.88-2.79-7.88-8.59h.02ZM189.1,51.97c-.06-3.75-2.05-5.77-5.22-5.77s-5.22,1.86-5.45,5.77h10.67Z"/>
  <path class="cls-2" d="M191.28,45.86c0-.9.7-1.55,1.56-1.55s1.56.65,1.56,1.55-.7,1.56-1.56,1.56-1.56-.65-1.56-1.56ZM192.84,47.22c.75,0,1.36-.57,1.36-1.36s-.61-1.36-1.36-1.36-1.35.57-1.35,1.36.61,1.36,1.35,1.36ZM192.22,45.04h.77c.37,0,.61.2.61.53,0,.26-.16.44-.41.5l.41.61h-.23l-.39-.59h-.54v.59h-.21v-1.65ZM192.96,45.92c.3,0,.42-.15.42-.35s-.12-.35-.42-.35h-.54v.71h.54Z"/>
</svg>