<svg width="39" height="68" viewBox="0 0 39 68" fill="none" xmlns="http://www.w3.org/2000/svg">
<path d="M38 18.5455C38 28.7878 29.4934 37.0909 19 37.0909C8.50659 37.0909 0 28.7878 0 18.5455C0 8.30308 8.50659 0 19 0C29.4934 0 38 8.30308 38 18.5455Z" fill="#367E7F"/>
<path d="M19 68L1.08114 24.7273L19 21.6364L36.9189 24.7273L19 68Z" fill="#367E7F"/>
<path fill-rule="evenodd" clip-rule="evenodd" d="M29.1614 9.88009C29.1614 10.4565 28.6911 10.9242 28.1117 10.9242C27.5323 10.9242 27.062 10.4565 27.062 9.88009C27.062 9.30372 27.5323 8.83594 28.1117 8.83594C28.6911 8.83594 29.1614 9.30372 29.1614 9.88009Z" fill="white"/>
<path fill-rule="evenodd" clip-rule="evenodd" d="M29.9997 12.3859C29.9997 12.9623 29.5295 13.4301 28.9501 13.4301C28.3706 13.4301 27.9004 12.9623 27.9004 12.3859C27.9004 11.8096 28.3706 11.3418 28.9501 11.3418C29.5295 11.3418 29.9997 11.8096 29.9997 12.3859Z" fill="white"/>
<path fill-rule="evenodd" clip-rule="evenodd" d="M26.6423 9.04415C26.6423 9.62052 26.1721 10.0883 25.5926 10.0883C25.0132 10.0883 24.543 9.62052 24.543 9.04415C24.543 8.46778 25.0132 8 25.5926 8C26.1721 8 26.6423 8.46778 26.6423 9.04415Z" fill="white"/>
<path fill-rule="evenodd" clip-rule="evenodd" d="M27.4807 11.55C27.4807 12.1264 27.0104 12.5942 26.431 12.5942C25.8516 12.5942 25.3813 12.1264 25.3813 11.55C25.3813 10.9736 25.8516 10.5059 26.431 10.5059C27.0104 10.5059 27.4807 10.9736 27.4807 11.55Z" fill="white"/>
<path fill-rule="evenodd" clip-rule="evenodd" d="M28.323 14.0559C28.323 14.6322 27.8527 15.1 27.2733 15.1C26.6939 15.1 26.2236 14.6322 26.2236 14.0559C26.2236 13.4795 26.6939 13.0117 27.2733 13.0117C27.8527 13.0117 28.323 13.4795 28.323 14.0559Z" fill="white"/>
<path fill-rule="evenodd" clip-rule="evenodd" d="M24.9617 10.7141C24.9617 11.2904 24.4914 11.7582 23.912 11.7582C23.3326 11.7582 22.8623 11.2904 22.8623 10.7141C22.8623 10.1377 23.3326 9.66992 23.912 9.66992C24.4914 9.66992 24.9617 10.1377 24.9617 10.7141Z" fill="white"/>
<path fill-rule="evenodd" clip-rule="evenodd" d="M25.8039 13.2199C25.8039 13.7963 25.3337 14.2641 24.7543 14.2641C24.1748 14.2641 23.7046 13.7963 23.7046 13.2199C23.7046 12.6436 24.1748 12.1758 24.7543 12.1758C25.3337 12.1758 25.8039 12.6436 25.8039 13.2199Z" fill="white"/>
<path fill-rule="evenodd" clip-rule="evenodd" d="M26.6423 15.7275C26.6423 16.3039 26.1721 16.7717 25.5926 16.7717C25.0132 16.7717 24.543 16.3039 24.543 15.7275C24.543 15.1511 25.0132 14.6833 25.5926 14.6833C26.1721 14.6833 26.6423 15.1511 26.6423 15.7275Z" fill="white"/>
<path fill-rule="evenodd" clip-rule="evenodd" d="M23.2849 12.3859C23.2849 12.9623 22.8146 13.4301 22.2352 13.4301C21.6558 13.4301 21.1855 12.9623 21.1855 12.3859C21.1855 11.8096 21.6558 11.3418 22.2352 11.3418C22.8146 11.3418 23.2849 11.8096 23.2849 12.3859Z" fill="white"/>
<path fill-rule="evenodd" clip-rule="evenodd" d="M24.1233 14.8918C24.1233 15.4682 23.653 15.936 23.0736 15.936C22.4942 15.936 22.0239 15.4682 22.0239 14.8918C22.0239 14.3154 22.4942 13.8477 23.0736 13.8477C23.653 13.8477 24.1233 14.3154 24.1233 14.8918Z" fill="white"/>
<path fill-rule="evenodd" clip-rule="evenodd" d="M24.9617 17.3977C24.9617 17.974 24.4914 18.4418 23.912 18.4418C23.3326 18.4418 22.8623 17.974 22.8623 17.3977C22.8623 16.8213 23.3326 16.3535 23.912 16.3535C24.4914 16.3535 24.9617 16.8213 24.9617 17.3977Z" fill="white"/>
<path fill-rule="evenodd" clip-rule="evenodd" d="M21.6042 14.0559C21.6042 14.6322 21.134 15.1 20.5546 15.1C19.9751 15.1 19.5049 14.6322 19.5049 14.0559C19.5049 13.4795 19.9751 13.0117 20.5546 13.0117C21.134 13.0117 21.6042 13.4795 21.6042 14.0559Z" fill="white"/>
<path fill-rule="evenodd" clip-rule="evenodd" d="M22.4426 16.5617C22.4426 17.1381 21.9724 17.6059 21.3929 17.6059C20.8135 17.6059 20.3433 17.1381 20.3433 16.5617C20.3433 15.9854 20.8135 15.5176 21.3929 15.5176C21.9724 15.5176 22.4426 15.9854 22.4426 16.5617Z" fill="white"/>
<path fill-rule="evenodd" clip-rule="evenodd" d="M23.2849 19.0676C23.2849 19.644 22.8146 20.1117 22.2352 20.1117C21.6558 20.1117 21.1855 19.644 21.1855 19.0676C21.1855 18.4912 21.6558 18.0234 22.2352 18.0234C22.8146 18.0234 23.2849 18.4912 23.2849 19.0676Z" fill="white"/>
<path fill-rule="evenodd" clip-rule="evenodd" d="M19.9236 15.7275C19.9236 16.3039 19.4533 16.7717 18.8739 16.7717C18.2945 16.7717 17.8242 16.3039 17.8242 15.7275C17.8242 15.1511 18.2945 14.6833 18.8739 14.6833C19.4533 14.6833 19.9236 15.1511 19.9236 15.7275Z" fill="white"/>
<path fill-rule="evenodd" clip-rule="evenodd" d="M20.7659 18.2334C20.7659 18.8097 20.2956 19.2775 19.7162 19.2775C19.1368 19.2775 18.6665 18.8097 18.6665 18.2334C18.6665 17.657 19.1368 17.1892 19.7162 17.1892C20.2956 17.1892 20.7659 17.657 20.7659 18.2334Z" fill="white"/>
<path fill-rule="evenodd" clip-rule="evenodd" d="M19.0852 19.9035C19.0852 20.4799 18.6149 20.9477 18.0355 20.9477C17.4561 20.9477 16.9858 20.4799 16.9858 19.9035C16.9858 19.3272 17.4561 18.8594 18.0355 18.8594C18.6149 18.8594 19.0852 19.3272 19.0852 19.9035Z" fill="white"/>
<path fill-rule="evenodd" clip-rule="evenodd" d="M17.4045 21.5734C17.4045 22.1498 16.9343 22.6176 16.3549 22.6176C15.7754 22.6176 15.3052 22.1498 15.3052 21.5734C15.3052 20.9971 15.7754 20.5293 16.3549 20.5293C16.9343 20.5293 17.4045 20.9971 17.4045 21.5734Z" fill="white"/>
<path fill-rule="evenodd" clip-rule="evenodd" d="M15.7244 23.2451C15.7244 23.8214 15.2541 24.2892 14.6747 24.2892C14.0953 24.2892 13.625 23.8214 13.625 23.2451C13.625 22.6687 14.0953 22.2009 14.6747 22.2009C15.2541 22.2009 15.7244 22.6687 15.7244 23.2451Z" fill="white"/>
<path fill-rule="evenodd" clip-rule="evenodd" d="M14.8856 20.7391C14.8856 20.5863 14.8494 20.4443 14.7898 20.314C14.5186 20.7959 14.2574 21.2746 14.0063 21.749C14.5018 21.6655 14.8856 21.2554 14.8856 20.7391Z" fill="white"/>
<path fill-rule="evenodd" clip-rule="evenodd" d="M14.9951 19.9534C15.1513 20.0444 15.3226 20.1112 15.5166 20.1112C16.0969 20.1112 16.5663 19.6435 16.5663 19.0671C16.5663 18.6736 16.3395 18.3445 16.0162 18.1658C15.8584 18.4431 15.6997 18.7204 15.5393 19.0003C15.3579 19.316 15.1757 19.6351 14.9951 19.9534Z" fill="white"/>
<path fill-rule="evenodd" clip-rule="evenodd" d="M17.1942 18.4418C17.7736 18.4418 18.2438 17.974 18.2438 17.3977C18.2438 16.8213 17.7736 16.3535 17.1942 16.3535C17.1253 16.3535 17.0657 16.3794 17.001 16.3919C16.7541 16.8547 16.4938 17.3225 16.2251 17.7969C16.383 18.1753 16.7567 18.4418 17.1942 18.4418Z" fill="white"/>
<path fill-rule="evenodd" clip-rule="evenodd" d="M20.3883 21.75C20.7721 21.5361 21.1508 21.329 21.5253 21.1285C21.5748 21.0082 21.6042 20.8779 21.6042 20.7392C21.6042 20.1628 21.1348 19.6951 20.5546 19.6951C19.9751 19.6951 19.5049 20.1628 19.5049 20.7392C19.5049 21.2571 19.8912 21.6681 20.3883 21.75Z" fill="white"/>
<path fill-rule="evenodd" clip-rule="evenodd" d="M17.8242 22.4094C17.8242 22.6583 17.9241 22.8772 18.0694 23.0568C18.3986 22.8722 18.7278 22.6859 19.0544 22.5004C19.3223 22.3484 19.586 22.1997 19.8505 22.0502C19.7027 21.6517 19.3257 21.3652 18.8739 21.3652C18.2945 21.3652 17.8242 21.833 17.8242 22.4094Z" fill="white"/>
<path fill-rule="evenodd" clip-rule="evenodd" d="M16.144 24.0793C16.144 24.0852 16.1474 24.091 16.1474 24.0968C16.6815 23.8195 17.2214 23.5305 17.7656 23.2264C17.5985 23.1153 17.4095 23.0352 17.1937 23.0352C16.6143 23.0352 16.144 23.5029 16.144 24.0793Z" fill="white"/>
<path fill-rule="evenodd" clip-rule="evenodd" d="M12.9968 23.8711C12.9917 23.8711 12.9875 23.8736 12.9825 23.8736C12.7373 24.4633 12.5248 25.0673 12.3535 25.667C12.8691 25.5217 13.4242 25.3329 14.0095 25.099C14.0204 25.0372 14.0464 24.9804 14.0464 24.9152C14.0464 24.3389 13.5762 23.8711 12.9968 23.8711Z" fill="white"/>
<path fill-rule="evenodd" clip-rule="evenodd" d="M18.178 27.4615C15.2524 30.3718 11.4274 30.7878 9.29609 28.6677C8.79644 28.1707 8.41352 27.601 8.14648 26.9921C8.14648 26.9921 10.7396 27.3571 14.4966 25.8084C19.0279 23.939 24.7557 19.3522 28.0425 20.0121C23.7858 22.2775 20.3101 25.3415 18.178 27.4615Z" fill="white"/>
<path fill-rule="evenodd" clip-rule="evenodd" d="M8.01237 25.7107L8.31468 25.7491C8.33147 25.7516 9.58101 25.8919 11.5452 25.4392C11.714 24.8478 11.9314 24.2121 12.2128 23.5363C14.0913 19.0289 18.7023 13.3312 18.0389 10.0618C15.7623 14.296 12.6822 17.7542 10.5501 19.8743C8.73371 21.6811 7.88557 23.832 8.01237 25.7107Z" fill="white"/>
</svg>
