<svg aria-hidden="true" style="position: absolute; width: 0; height: 0; overflow: hidden;" version="1.1"
     xmlns="http://www.w3.org/2000/svg" xmlns:xlink="http://www.w3.org/1999/xlink">
    <defs>
        <symbol id="icon-twitter" viewBox="0 0 17 13">
            <path d="M14.6531 3.29609C14.6631 3.43653 14.6631 3.577 14.6631 3.71744C14.6631 8.00102 11.4028 12.9367 5.44383 12.9367C3.60799 12.9367 1.90259 12.405 0.468018 11.4821C0.728858 11.5122 0.979628 11.5222 1.2505 11.5222C2.76529 11.5222 4.15974 11.0106 5.27328 10.1378C3.84875 10.1077 2.65496 9.17478 2.24364 7.89069C2.44429 7.92077 2.64492 7.94084 2.85561 7.94084C3.14652 7.94084 3.43747 7.9007 3.70831 7.83051C2.2236 7.52953 1.11003 6.2254 1.11003 4.6504V4.61029C1.54138 4.85106 2.04302 5.00153 2.57467 5.02157C1.7019 4.43971 1.1301 3.44657 1.1301 2.32299C1.1301 1.72109 1.29058 1.16934 1.57149 0.687807C3.16656 2.65405 5.56419 3.93811 8.2527 4.07858C8.20255 3.83781 8.17245 3.58704 8.17245 3.33624C8.17245 1.55055 9.61705 0.0959473 11.4127 0.0959473C12.3457 0.0959473 13.1884 0.487187 13.7803 1.1192C14.5126 0.978757 15.2148 0.707887 15.8368 0.336717C15.596 1.08913 15.0844 1.72113 14.4123 2.12238C15.0643 2.05219 15.6963 1.87158 16.2782 1.62081C15.8368 2.26282 15.2851 2.83462 14.6531 3.29611L14.6531 3.29609Z"/>
        </symbol>
        <symbol id="icon-twitter-x" viewBox="0 0 16 16">
            <path d="M12.6.75h2.454l-5.36 6.142L16 15.25h-4.937l-3.867-5.07-4.425 5.07H.316l5.733-6.57L0 .75h5.063l3.495 4.633L12.601.75Zm-.86 13.028h1.36L4.323 2.145H2.865l8.875 11.633Z"/>
        </symbol>
        <symbol id="icon-linkedin" viewBox="0 0 15 14">
            <path fill-rule="evenodd" clip-rule="evenodd" d="M3.37459 13.8576H0.506525V4.62156H3.37459V13.8576ZM1.93902 3.36168C1.0219 3.36168 0.278015 2.60205 0.278015 1.68493C0.278015 0.767576 1.02168 0.0239258 1.93902 0.0239258C2.85637 0.0239258 3.60002 0.767586 3.60002 1.68493C3.60002 2.60205 2.85583 3.36168 1.93902 3.36168ZM14.1089 13.8576H11.247V9.36154C11.247 8.29003 11.2254 6.9159 9.75582 6.9159C8.26466 6.9159 8.03615 8.08005 8.03615 9.28435V13.8576H5.17115V4.62157H7.92189V5.88145H7.96202C8.34492 5.15579 9.28026 4.38998 10.6757 4.38998C13.5784 4.38998 14.112 6.30141 14.112 8.78411V13.8576L14.1089 13.8576Z"/>
        </symbol>
        <symbol id="icon-facebook" viewBox="0 0 20 20">
            <svg width="20" height="20"  fill="none" xmlns="http://www.w3.org/2000/svg">
                <g clip-path="url(#clip0_921_2481)">
                    <path fill-rule="evenodd" clip-rule="evenodd" d="M0 10.0558C0 15.0275 3.61083 19.1617 8.33333 20V12.7775H5.83333V10H8.33333V7.7775C8.33333 5.2775 9.94417 3.88917 12.2225 3.88917C12.9442 3.88917 13.7225 4 14.4442 4.11083V6.66667H13.1667C11.9442 6.66667 11.6667 7.2775 11.6667 8.05583V10H14.3333L13.8892 12.7775H11.6667V20C16.3892 19.1617 20 15.0283 20 10.0558C20 4.525 15.5 0 10 0C4.5 0 0 4.525 0 10.0558Z" fill="white"/>
                </g>
                <defs>
                    <clipPath id="clip0_921_2481">
                        <rect width="20" height="20" fill="white"/>
                    </clipPath>
                </defs>
            </svg>
        </symbol>
        <symbol id="icon-instagram" viewBox="0 0 19 20">
            <svg width="19" height="20" fill="none" xmlns="http://www.w3.org/2000/svg">
                <path d="M9.49745 6.66525C7.75305 6.66525 6.32949 8.16376 6.32949 10C6.32949 11.8362 7.75305 13.3348 9.49745 13.3348C11.2418 13.3348 12.6654 11.8362 12.6654 10C12.6654 8.16376 11.2418 6.66525 9.49745 6.66525ZM18.9989 10C18.9989 8.61907 19.0108 7.25064 18.9371 5.87221C18.8635 4.27113 18.5165 2.85017 17.4043 1.67938C16.2897 0.506085 14.9421 0.14334 13.4211 0.065788C12.1093 -0.0117644 10.8093 0.000744113 9.49982 0.000744113C8.18796 0.000744113 6.88798 -0.0117644 5.5785 0.065788C4.0575 0.14334 2.70761 0.508587 1.59538 1.67938C0.480772 2.85267 0.136171 4.27113 0.0624975 5.87221C-0.0111759 7.25314 0.000706894 8.62157 0.000706894 10C0.000706894 11.3784 -0.0111759 12.7494 0.0624975 14.1278C0.136171 15.7289 0.483149 17.1498 1.59538 18.3206C2.70999 19.4939 4.0575 19.8567 5.5785 19.9342C6.89036 20.0118 8.19034 19.9993 9.49982 19.9993C10.8117 19.9993 12.1117 20.0118 13.4211 19.9342C14.9421 19.8567 16.292 19.4914 17.4043 18.3206C18.5189 17.1473 18.8635 15.7289 18.9371 14.1278C19.0132 12.7494 18.9989 11.3809 18.9989 10ZM9.49745 15.131C6.80005 15.131 4.62312 12.8394 4.62312 10C4.62312 7.16058 6.80005 4.86903 9.49745 4.86903C12.1948 4.86903 14.3718 7.16058 14.3718 10C14.3718 12.8394 12.1948 15.131 9.49745 15.131ZM14.5714 5.8572C13.9416 5.8572 13.433 5.32184 13.433 4.65889C13.433 3.99594 13.9416 3.46058 14.5714 3.46058C15.2012 3.46058 15.7098 3.99594 15.7098 4.65889C15.71 4.81631 15.6806 4.97222 15.6235 5.1177C15.5664 5.26317 15.4825 5.39535 15.3768 5.50666C15.271 5.61798 15.1455 5.70624 15.0073 5.76639C14.8691 5.82654 14.721 5.8574 14.5714 5.8572Z" />
            </svg>
        </symbol>
        <symbol id="icon-youtube" viewBox="0 0 17 13">
            <path fill-rule="evenodd" clip-rule="evenodd" d="M16.6239 2.53928C16.4299 1.80898 15.8585 1.23382 15.1329 1.03864C13.8177 0.68396 8.54414 0.68396 8.54414 0.68396C8.54414 0.68396 3.27057 0.68396 1.95538 1.03864C1.22981 1.23386 0.65835 1.80899 0.4644 2.53928C0.112 3.86298 0.112 6.62477 0.112 6.62477C0.112 6.62477 0.112 9.38656 0.4644 10.7103C0.65835 11.4406 1.22981 11.9917 1.95538 12.1869C3.27056 12.5416 8.54414 12.5416 8.54414 12.5416C8.54414 12.5416 13.8177 12.5416 15.1329 12.1869C15.8585 11.9917 16.4299 11.4406 16.6239 10.7103C16.9763 9.38656 16.9763 6.62477 16.9763 6.62477C16.9763 6.62477 16.9763 3.86298 16.6239 2.53928ZM6.81937 9.13227V4.11728L11.2271 6.62484L6.81937 9.13227Z"/>
        </symbol>
        <symbol id="icon-snapchat" viewBox="0 0 17 16">
            <path d="M16.5926 12.0321C16.4317 12.4075 15.7515 12.6833 14.5126 12.8757C14.4489 12.9617 14.396 13.3291 14.3117 13.6154C14.2615 13.7873 14.138 13.8893 13.9372 13.8893L13.928 13.8891C13.6379 13.8891 13.335 13.7556 12.7283 13.7556C11.9093 13.7556 11.6271 13.9422 10.9912 14.3914C10.317 14.8681 9.67046 15.2796 8.7053 15.2374C7.72809 15.3095 6.91353 14.7153 6.45509 14.3912C5.81545 13.939 5.53402 13.7556 4.7184 13.7556C4.13589 13.7556 3.76929 13.9014 3.51868 13.9014C3.26939 13.9014 3.17243 13.7494 3.1351 13.6222C3.05163 13.3385 2.99911 12.9657 2.93367 12.8771C2.29512 12.778 0.855177 12.5268 0.818497 11.8844C0.809287 11.7172 0.927427 11.5699 1.09262 11.5426C3.2413 11.1888 4.20909 8.98263 4.24932 8.88896C4.25161 8.88353 4.25411 8.87834 4.25664 8.87306C4.37129 8.64032 4.39696 8.44541 4.3327 8.29398C4.17676 7.92664 3.50291 7.79486 3.21941 7.68269C2.48711 7.39348 2.3852 7.06115 2.42853 6.83338C2.50378 6.43702 3.09938 6.1931 3.44761 6.3562C3.72302 6.48531 3.96771 6.55065 4.17473 6.55065C4.32981 6.55065 4.42831 6.51347 4.48229 6.48361C4.4192 5.37393 4.26302 3.78815 4.6579 2.90256C5.70079 0.564445 7.91123 0.382755 8.56343 0.382755C8.59258 0.382755 8.8457 0.380005 8.87562 0.380005C10.4859 0.380005 12.0332 1.20695 12.7887 2.90108C13.1833 3.78577 13.028 5.36502 12.9646 6.48337C13.0134 6.51029 13.0991 6.54333 13.2301 6.54942C13.4277 6.54059 13.6567 6.47565 13.9116 6.3562C14.0995 6.26832 14.3565 6.28022 14.544 6.358L14.5449 6.3583C14.8375 6.46283 15.0217 6.67373 15.0263 6.91011C15.032 7.21109 14.7631 7.47104 14.2272 7.68265C14.1618 7.70844 14.0822 7.73376 13.9976 7.76062C13.6951 7.85653 13.238 8.00163 13.114 8.29394C13.0498 8.44537 13.0752 8.64013 13.19 8.87288C13.1926 8.87807 13.1951 8.88344 13.1973 8.88877C13.2375 8.98234 14.2045 11.1881 16.3541 11.5424C16.5526 11.575 16.6988 11.7856 16.5927 12.0321L16.5926 12.0321Z"/>
        </symbol>
        <symbol id="icon-flicker" viewBox="0 0 13 13">
            <path fill-rule="evenodd" clip-rule="evenodd" d="M9.52125 0.24292H3.59241C1.96198 0.24292 0.627991 1.57691 0.627991 3.20734V9.13617C0.627991 10.7666 1.96198 12.1006 3.59241 12.1006H9.52125C11.1517 12.1006 12.4857 10.7666 12.4857 9.13617V3.20734C12.4857 1.57691 11.1517 0.24292 9.52125 0.24292ZM4.33352 7.65396C3.51522 7.65396 2.85131 6.99005 2.85131 6.17175C2.85131 5.35345 3.51522 4.68954 4.33352 4.68954C5.15182 4.68954 5.81573 5.35345 5.81573 6.17175C5.81573 6.99005 5.15182 7.65396 4.33352 7.65396ZM8.78015 7.65396C7.96185 7.65396 7.29794 6.99005 7.29794 6.17175C7.29794 5.35345 7.96185 4.68954 8.78015 4.68954C9.59845 4.68954 10.2624 5.35345 10.2624 6.17175C10.2624 6.99005 9.59845 7.65396 8.78015 7.65396Z" fill="white"/>
        </symbol>
        <symbol id="icon-email" viewBox="0 0 32 32">
            <path d="M0 32v-32h32v32h-32zM15.013 18.096c0.546 0.5 1.429 0.501 1.972-0.002l8.015-7.375c-0.247-0.425-0.729-0.719-1.288-0.719l-15.425-0.001c-0.558 0-1.038 0.294-1.287 0.719l8.013 7.377zM18.072 19.734c-0.571 0.541-1.323 0.814-2.074 0.814s-1.501-0.271-2.074-0.811l-6.924-6.56v8.17c0 0.75 0.644 1.36 1.434 1.36h15.13c0.793 0 1.436-0.61 1.436-1.36l-0.001-8.17-6.927 6.558z"></path>
        </symbol>
        <symbol id="icon-email-alt" viewBox="0 0 28 28">
            <path d="M28 11.094v12.406c0 1.375-1.125 2.5-2.5 2.5h-23c-1.375 0-2.5-1.125-2.5-2.5v-12.406c0.469 0.516 1 0.969 1.578 1.359 2.594 1.766 5.219 3.531 7.766 5.391 1.313 0.969 2.938 2.156 4.641 2.156h0.031c1.703 0 3.328-1.188 4.641-2.156 2.547-1.844 5.172-3.625 7.781-5.391 0.562-0.391 1.094-0.844 1.563-1.359zM28 6.5c0 1.75-1.297 3.328-2.672 4.281-2.438 1.687-4.891 3.375-7.313 5.078-1.016 0.703-2.734 2.141-4 2.141h-0.031c-1.266 0-2.984-1.437-4-2.141-2.422-1.703-4.875-3.391-7.297-5.078-1.109-0.75-2.688-2.516-2.688-3.938 0-1.531 0.828-2.844 2.5-2.844h23c1.359 0 2.5 1.125 2.5 2.5z"></path>
        </symbol>
        <symbol id="icon-phone" viewBox="0 0 32 32">
            <path d="M0 0h32v32h-32v-32zM26.785 22.646l0-0c0.17-0.408 0.329-1.13 0.104-1.359-0.083-0.085-4.427-2.628-4.571-2.697s-0.284-0.104-0.423-0.104c-0.199 0-0.447 0.14-0.744 0.423s-1.23 1.561-1.508 1.843c-0.277 0.282-0.505 0.423-0.684 0.423-0.089 0-0.201-0.025-0.334-0.074s-1.525-0.765-4.414-3.303c-2.888-2.539-3.268-4.196-3.287-4.66 0-0.179 0.141-0.407 0.424-0.684s0.59-0.54 0.921-0.788c0.332-0.248 0.639-0.521 0.921-0.818s0.424-0.545 0.424-0.743c0-0.139-0.035-0.281-0.104-0.424s-2.706-4.484-2.795-4.572c-0.199-0.2-0.971-0.107-1.36 0.104-3.141 1.697-3.402 3.98-3.351 4.891 0.051 0.934 0.64 5.855 5.462 10.43 5.991 5.684 10.159 5.464 10.427 5.464 0.911 0 3.701-0.5 4.89-3.353z"></path>
        </symbol>
        <symbol id="icon-phone-alt" viewBox="0 0 22 28">
            <path d="M22 19.375c0 0.562-0.25 1.656-0.484 2.172-0.328 0.766-1.203 1.266-1.906 1.656-0.922 0.5-1.859 0.797-2.906 0.797-1.453 0-2.766-0.594-4.094-1.078-0.953-0.344-1.875-0.766-2.734-1.297-2.656-1.641-5.859-4.844-7.5-7.5-0.531-0.859-0.953-1.781-1.297-2.734-0.484-1.328-1.078-2.641-1.078-4.094 0-1.047 0.297-1.984 0.797-2.906 0.391-0.703 0.891-1.578 1.656-1.906 0.516-0.234 1.609-0.484 2.172-0.484 0.109 0 0.219 0 0.328 0.047 0.328 0.109 0.672 0.875 0.828 1.188 0.5 0.891 0.984 1.797 1.5 2.672 0.25 0.406 0.719 0.906 0.719 1.391 0 0.953-2.828 2.344-2.828 3.187 0 0.422 0.391 0.969 0.609 1.344 1.578 2.844 3.547 4.813 6.391 6.391 0.375 0.219 0.922 0.609 1.344 0.609 0.844 0 2.234-2.828 3.187-2.828 0.484 0 0.984 0.469 1.391 0.719 0.875 0.516 1.781 1 2.672 1.5 0.313 0.156 1.078 0.5 1.188 0.828 0.047 0.109 0.047 0.219 0.047 0.328z"></path>
        </symbol>
    </defs>
</svg>